<?xml version="1.0" standalone="no"?>
<!DOCTYPE svg PUBLIC "-//W3C//DTD SVG 1.1//EN" "http://www.w3.org/Graphics/SVG/1.1/DTD/svg11.dtd" >
<svg xmlns="http://www.w3.org/2000/svg" xmlns:xlink="http://www.w3.org/1999/xlink" version="1.1">
<metadata></metadata>
<defs>
<font id="harryobeserr_squeezedregular" horiz-adv-x="950" >
<font-face units-per-em="2048" ascent="1638" descent="-410" />
<missing-glyph horiz-adv-x="410" />
<glyph horiz-adv-x="0" />
<glyph unicode="&#xd;" horiz-adv-x="410" />
<glyph unicode=" "  horiz-adv-x="410" />
<glyph unicode="&#x09;" horiz-adv-x="410" />
<glyph unicode="&#xa0;" horiz-adv-x="410" />
<glyph unicode="!" horiz-adv-x="641" d="M96 211q0 100 65.5 170t160.5 70q92 0 158.5 -70t66.5 -168t-66.5 -169t-156.5 -71q-95 0 -161.5 69.5t-66.5 168.5zM121 492v874h399v-874h-399z" />
<glyph unicode="&#x22;" horiz-adv-x="879" d="M55 795l107 477q27 121 137 121q58 0 95.5 -34.5t37.5 -88.5q0 -43 -26 -86l-238 -389h-113zM449 795l106 477q27 121 137 121q59 0 96 -34.5t37 -88.5q0 -43 -26 -86l-238 -389h-112z" />
<glyph unicode="#" horiz-adv-x="1120" d="M45 532l33 185h190l37 205h-192l32 184h193l45 260h190l-45 -260h164l45 260h193l-47 -260h192l-33 -184h-192l-35 -205h191l-33 -185h-191l-45 -260h-192l47 260h-164l-47 -260h-191l46 260h-191zM459 717h164l36 205h-163z" />
<glyph unicode="$" horiz-adv-x="719" d="M27 1081q0 212 211 287v164h237v-143q101 -11 180 -39v-258q-42 20 -67 28q-66 23 -117 23q-88 0 -88 -56q0 -43 78 -65q105 -30 153 -74q76 -69 76 -200q0 -227 -215 -304v-184h-237v158q-98 11 -195 47v268q122 -59 197 -59q90 0 90 65q0 42 -47 58l-86 28 q-170 57 -170 256z" />
<glyph unicode="%" horiz-adv-x="1581" d="M27 963q0 201 78.5 315.5t218.5 114.5q139 0 215.5 -112.5t76.5 -317.5q0 -197 -78 -309.5t-214 -112.5q-142 0 -219.5 110t-77.5 312zM260 0l819 1366h246l-819 -1366h-246zM264 965q0 -220 58 -220q59 0 59 216q0 231 -59 231q-58 0 -58 -227zM965 395q0 202 78.5 315 t218.5 113t216 -111t76 -317q0 -198 -78 -310t-214 -112q-142 0 -219.5 110.5t-77.5 311.5zM1200 397q0 -219 60 -219q59 0 59 211q0 236 -59 236q-60 0 -60 -228z" />
<glyph unicode="&#x26;" horiz-adv-x="1425" d="M33 438q0 188 133 301q51 44 129 86q-76 117 -76 230q0 150 115 244t301 94q187 0 302.5 -98.5t115.5 -258.5q0 -146 -101 -237q-46 -42 -127 -92l70 -80q10 37 12 69h367q-5 -77 -21 -141q-26 -112 -94 -229l287 -326h-483l-50 59q-154 -86 -335 -86q-234 0 -389.5 133 t-155.5 332zM428 442q0 -58 42.5 -95.5t111.5 -37.5q50 0 102 29l-182 225q-74 -54 -74 -121zM573 1040q0 -45 39 -90q93 50 93 88q0 66 -68 66q-64 0 -64 -64z" />
<glyph unicode="'" horiz-adv-x="485" d="M55 795l107 477q27 121 137 121q58 0 95.5 -34.5t37.5 -88.5q0 -43 -26 -86l-238 -389h-113z" />
<glyph unicode="(" horiz-adv-x="758" d="M137 584q0 299 111 549q92 208 239 372h267l-13 -26q-120 -260 -159 -412q-62 -234 -62 -500q0 -225 55 -438q66 -251 183 -457h-279q-77 95 -131 183q-211 346 -211 729z" />
<glyph unicode=")" horiz-adv-x="758" d="M0 -328q57 98 104 217q136 341 136 678q0 131 -19 277q-13 106 -45 223q-43 158 -160 412l-12 26h266q66 -73 123 -159q67 -101 117 -213q113 -253 113 -549q0 -262 -107 -521q-83 -201 -237 -391h-279z" />
<glyph unicode="*" horiz-adv-x="743" d="M68 1024l270 55v8l-270 56q20 100 100 174l182 -207l4 4l4 2l-88 260q49 17 101 17q53 0 100 -17l-86 -260q2 -1 6 -6l182 207q80 -71 101 -174l-268 -56v-8l268 -55q-22 -105 -101 -172l-182 205q-1 -1 -3 -2t-3 -2l86 -260q-53 -19 -100 -19q-45 0 -101 19l88 260l-8 4 l-182 -205q-76 67 -100 172z" />
<glyph unicode="+" horiz-adv-x="956" d="M68 287v245h286v287h246v-287h287v-245h-287v-287h-246v287h-286z" />
<glyph unicode="," horiz-adv-x="547" d="M47 213q0 98 66.5 168t158.5 70q95 0 160.5 -70.5t65.5 -171.5q0 -92 -72 -201l-199 -301h-118l96 279q-158 56 -158 227z" />
<glyph unicode="-" horiz-adv-x="682" d="M68 375v315h546v-315h-546z" />
<glyph unicode="." horiz-adv-x="547" d="M47 211q0 100 66 170t159 70q94 0 160 -70t66 -168t-65.5 -169t-156.5 -71q-95 0 -162 70t-67 168z" />
<glyph unicode="/" horiz-adv-x="1147" d="M14 -27l820 1420h299l-820 -1420h-299z" />
<glyph unicode="0" horiz-adv-x="1049" d="M35 676q0 336 130.5 526.5t360.5 190.5q235 0 362.5 -186.5t127.5 -530.5q0 -329 -130.5 -516t-359.5 -187q-233 0 -362 184.5t-129 518.5zM428 678q0 -363 96 -363q99 0 99 355q0 387 -99 387q-96 0 -96 -379z" />
<glyph unicode="1" horiz-adv-x="580" d="M14 1030v336h308q125 0 178 -72q39 -53 39 -172v-1122h-389v1030h-136z" />
<glyph unicode="2" horiz-adv-x="999" d="M20 203q0 76 60 143l452 514q56 63 56 115q0 96 -99 96q-88 0 -94 -129h-358q10 116 39 195q45 120 160 188t274 68q209 0 336 -110.5t127 -291.5q0 -87 -31 -160q-42 -100 -203 -278q-51 -57 -92 -104l-80 -93l-14 -14h393v-342h-672q-105 0 -153 27q-101 55 -101 176z " />
<glyph unicode="3" horiz-adv-x="952" d="M27 424h350q3 -125 88 -125q86 0 86 109q0 105 -80 135l-61 22q-78 29 -78 144q0 118 74 145l55 20q67 26 67 107q0 96 -75 96q-70 0 -76 -106h-336q5 117 25 182q33 112 137.5 176t253.5 64q196 0 318 -106t122 -275q0 -137 -88 -228q-35 -36 -92 -71q209 -103 209 -328 q0 -183 -128 -297.5t-331 -114.5q-221 0 -344 133q-94 102 -96 318z" />
<glyph unicode="4" horiz-adv-x="1030" d="M14 541q0 56 25 131l229 694h338l-192 -727h207v727h368v-1366h-368v305h-242q-184 0 -256 41q-109 62 -109 195z" />
<glyph unicode="5" horiz-adv-x="975" d="M20 438h367v-18q0 -111 92 -111t92 109q0 71 -34 101t-115 30h-80q-148 0 -213.5 61t-65.5 199v557h793v-336h-424v-149h31q134 0 209.5 -24.5t140.5 -86.5q135 -130 135 -344q0 -209 -130 -331t-351 -122q-216 0 -336 123q-102 105 -111 342z" />
<glyph unicode="6" horiz-adv-x="1016" d="M27 461q0 147 79 332l248 573h406l-209 -448q66 14 98 14q152 0 246 -122t94 -318q0 -238 -129.5 -378.5t-349.5 -140.5q-214 0 -348.5 136t-134.5 352zM418 461q0 -178 94 -178q86 0 86 168q0 167 -90 167t-90 -157z" />
<glyph unicode="7" horiz-adv-x="915" d="M20 1030v336h601q138 0 200 -49q94 -75 94 -197v-12q-3 -37 -18 -76q-7 -19 -29 -74l-372 -958h-422l452 1030h-506z" />
<glyph unicode="8" horiz-adv-x="961" d="M20 403q0 149 93 254q28 33 88 76q-47 39 -68 64q-82 98 -82 225q0 164 116 267.5t300 103.5q192 0 317 -106.5t125 -270.5q0 -127 -88 -228q-22 -25 -61 -57q180 -119 180 -323q0 -188 -130 -311.5t-327 -123.5q-196 0 -329.5 124t-133.5 306zM395 430q0 -147 86 -147 q84 0 84 147q0 158 -84 158q-81 0 -84 -146zM410 967q0 -107 71 -107q70 0 70 105q0 125 -70 125q-71 0 -71 -115v-8z" />
<glyph unicode="9" horiz-adv-x="1016" d="M27 874q0 237 130 378t351 141q213 0 347 -136t134 -352q0 -147 -80 -332l-247 -573h-404l207 449q-55 -15 -98 -15q-152 0 -246 122t-94 318zM418 913q0 -168 92 -168q90 0 90 160q0 176 -94 176q-88 0 -88 -168z" />
<glyph unicode=":" horiz-adv-x="573" d="M61 211q0 100 66 170t160 70q93 0 159 -70t66 -168t-65.5 -169t-155.5 -71q-95 0 -162.5 70t-67.5 168zM61 750q0 100 66 170.5t160 70.5q93 0 159 -70t66 -169t-65.5 -169.5t-155.5 -70.5q-95 0 -162.5 69.5t-67.5 168.5z" />
<glyph unicode=";" horiz-adv-x="573" d="M61 213q0 98 66 168t160 70t159.5 -70.5t65.5 -171.5q0 -92 -72 -201l-198 -301h-119l94 279q-156 56 -156 227zM61 750q0 100 66 170.5t160 70.5q93 0 159 -70t66 -169t-65.5 -169.5t-155.5 -70.5q-95 0 -162.5 69.5t-67.5 168.5z" />
<glyph unicode="&#x3c;" horiz-adv-x="956" d="M362 586l97 96l-97 96l19 21l96 -97l96 97l21 -21l-96 -96l96 -96l-21 -19l-96 97l-96 -97z" />
<glyph unicode="=" horiz-adv-x="956" d="M68 68v245h819v-245h-819zM68 506v246h819v-246h-819z" />
<glyph unicode="&#x3e;" horiz-adv-x="956" d="M362 586l97 96l-97 96l19 21l96 -97l96 97l21 -21l-96 -96l96 -96l-21 -19l-96 97l-96 -97z" />
<glyph unicode="?" horiz-adv-x="1065" d="M41 963q7 104 43 186q50 115 167.5 179.5t276.5 64.5q225 0 360.5 -110.5t135.5 -293.5q0 -311 -317 -407v-90h-400v206q0 174 172 187q37 2 60 6q27 4 45 18q32 27 32 68t-28 68.5t-68 27.5q-92 0 -98 -110h-381zM283 211q0 100 65 170t160 70q92 0 158.5 -70t66.5 -168 t-66 -169t-157 -71q-95 0 -161 69.5t-66 168.5z" />
<glyph unicode="@" horiz-adv-x="1841" d="M96 692q0 332 237 546t605 214q365 0 586 -193.5t221 -513.5q0 -202 -112 -328t-294 -126q-185 0 -266 162q-101 -152 -258 -152q-120 0 -194 87t-74 226q0 194 119.5 329.5t289.5 135.5q73 0 148 -35l4 41h205l-76 -516q0 -5 -1 -13.5t-1 -12.5q0 -60 41.5 -103 t99.5 -43q103 0 168.5 87.5t65.5 226.5q0 281 -178.5 452.5t-468.5 171.5q-291 0 -475.5 -177t-184.5 -456q0 -274 197 -463.5t483 -189.5q129 0 260 47q67 24 148 66l47 -90q-235 -135 -510 -135q-361 0 -596.5 213.5t-235.5 541.5zM766 645q0 -95 36 -150t97 -55 q58 0 102 59.5t56 153.5l37 303q-61 35 -105 35q-93 0 -158 -100.5t-65 -245.5z" />
<glyph unicode="A" horiz-adv-x="1026" d="M-14 0l272 1180q49 213 262 213q214 0 260 -213l258 -1180h-389l-31 193h-206l-35 -193h-391zM463 487h106l-51 312z" />
<glyph unicode="B" horiz-adv-x="1004" d="M41 244v878q0 119 39 172q52 72 180 72h266q204 0 315 -95.5t111 -271.5q0 -128 -75 -217q-26 -29 -103 -82q209 -118 209 -329q0 -166 -111 -268.5t-292 -102.5h-320q-164 0 -205 117q-14 40 -14 127zM424 301h47q117 0 117 129t-109 129h-55v-258zM424 846h47 q109 0 109 110q0 115 -103 115h-53v-225z" />
<glyph unicode="C" horiz-adv-x="846" d="M27 686q0 261 98 422q51 84 129 145q143 113 385 113h180v-336h-100q-291 0 -291 -344q0 -117 39 -205q62 -139 252 -139h100v-342h-180q-612 0 -612 686z" />
<glyph unicode="D" horiz-adv-x="1030" d="M41 244v878q0 119 39 172q52 72 180 72h193q259 0 405 -181t146 -503q0 -241 -68 -391q-61 -137 -176.5 -214t-259.5 -77h-240q-164 0 -205 117q-14 40 -14 127zM430 342q100 5 140 80.5t40 261.5q0 187 -39 261t-141 79v-682z" />
<glyph unicode="E" horiz-adv-x="784" d="M41 244v878q0 119 39 172q52 72 180 72h483v-322h-313v-188h287v-313h-287v-221h313v-322h-483q-164 0 -205 117q-14 40 -14 127z" />
<glyph unicode="F" horiz-adv-x="768" d="M41 0v1122q0 119 39 172q52 72 180 72h473v-322h-313v-215h287v-321h-287v-508h-379z" />
<glyph unicode="G" horiz-adv-x="1014" d="M27 668q0 274 120 456q161 242 529 242h137v-336h-131q-254 0 -254 -379q0 -158 44 -229.5t149 -79.5v424h360v-487q0 -92 -19.5 -140t-70.5 -86q-104 -76 -273 -76q-273 0 -432 186t-159 505z" />
<glyph unicode="H" horiz-adv-x="1079" d="M41 0v1366h383v-500h231v500h383v-1366h-383v532h-231v-532h-383z" />
<glyph unicode="I" horiz-adv-x="471" d="M41 0v1366h389v-1366h-389z" />
<glyph unicode="J" horiz-adv-x="682" d="M20 0v342h105q73 0 104 41q23 30 23 100v883h389v-909q0 -457 -422 -457h-199z" />
<glyph unicode="K" horiz-adv-x="1073" d="M41 0v1366h389v-606l225 606h418l-280 -655l294 -711h-423l-234 647v-647h-389z" />
<glyph unicode="L" horiz-adv-x="764" d="M41 244v1122h389v-1024h307v-342h-477q-164 0 -205 117q-14 40 -14 127z" />
<glyph unicode="M" horiz-adv-x="1489" d="M41 0v1133q0 102 47 163q74 97 227 97q155 0 234 -93q38 -44 69 -159l125 -455l123 455q32 115 70 159q80 93 233 93q98 0 166 -41q113 -68 113 -224v-1128h-383v696l-174 -592q-36 -122 -150 -122q-115 0 -151 122l-174 592v-696h-375z" />
<glyph unicode="N" horiz-adv-x="1090" d="M41 0v1171q0 105 63.5 163.5t178.5 58.5q83 0 143 -39q70 -45 111 -162l143 -412v586h369v-1171q0 -105 -63.5 -163.5t-178.5 -58.5q-190 0 -254 201l-143 449v-623h-369z" />
<glyph unicode="O" horiz-adv-x="1130" d="M27 686q0 323 148 515t398 192q246 0 388.5 -191.5t142.5 -521.5q0 -322 -144.5 -514.5t-386.5 -192.5q-250 0 -398 193t-148 520zM436 666q0 -342 131 -342q79 0 111 106q24 82 24 244q0 200 -30 288.5t-99 88.5q-137 0 -137 -385z" />
<glyph unicode="P" horiz-adv-x="1020" d="M41 0v1122q0 119 39 172q52 72 180 72h248q196 0 319 -94q174 -133 174 -367q0 -180 -102 -303q-50 -60 -121 -98q-110 -60 -309 -60h-39v-444h-389zM430 758q82 2 117 22q59 35 59 131q0 94 -69 129q-26 14 -107 19v-301z" />
<glyph unicode="Q" horiz-adv-x="1130" d="M27 684q0 324 148 516.5t398 192.5q246 0 388.5 -191.5t142.5 -523.5q0 -210 -68 -375l166 -303h-350l-25 45q-131 -72 -262 -72q-244 0 -391 194.5t-147 516.5zM436 666q0 -342 131 -342q79 0 111 106q24 82 24 244q0 200 -30 288.5t-99 88.5q-137 0 -137 -385z" />
<glyph unicode="R" horiz-adv-x="1032" d="M41 0v1122q0 119 39 172q52 72 180 72h287q195 0 301 -78q156 -115 156 -332q0 -222 -216 -348l254 -608h-424l-155 451q-25 71 -25 129q0 113 84 192q18 16 43 41q35 40 35 105q0 141 -172 141v-1059h-387z" />
<glyph unicode="S" horiz-adv-x="834" d="M27 952q0 189 135.5 315t339.5 126q114 0 268 -54v-329q-138 57 -231 57q-133 0 -133 -98q0 -39 25.5 -65.5t100.5 -65.5q134 -70 193 -146q80 -103 80 -258q0 -203 -136 -332t-350 -129q-127 0 -272 50v344q146 -54 221 -54q156 0 156 105q0 26 -12 49q-21 38 -119 92 q-266 148 -266 393z" />
<glyph unicode="T" horiz-adv-x="922" d="M27 1030v336h868v-336h-240v-1030h-389v1030h-239z" />
<glyph unicode="U" horiz-adv-x="1065" d="M41 420v946h389v-879q0 -84 19 -112q26 -41 83 -41q58 0 84 41q19 28 19 112v879h389v-946q0 -198 -136.5 -322.5t-355.5 -124.5q-218 0 -354.5 124.5t-136.5 322.5z" />
<glyph unicode="V" horiz-adv-x="1042" d="M-14 1366h407l137 -887l119 887h408l-273 -1202q-43 -191 -256 -191q-210 0 -256 191z" />
<glyph unicode="W" horiz-adv-x="1544" d="M-6 1366h393l105 -655l86 522q15 96 69 131q44 29 121 29q74 0 121 -29q52 -32 69 -131l93 -522l104 655h395l-260 -1223q-36 -170 -217 -170q-187 0 -217 170l-90 510l-88 -510q-29 -170 -217 -170q-183 0 -217 170z" />
<glyph unicode="X" horiz-adv-x="1153" d="M-14 0l397 692l-377 674h438l134 -303l133 303h436l-373 -674l393 -692h-444l-145 332l-142 -332h-450z" />
<glyph unicode="Y" horiz-adv-x="999" d="M-14 1366h409l105 -422l104 422h410l-324 -829v-537h-383v537z" />
<glyph unicode="Z" horiz-adv-x="913" d="M12 215q0 59 37 125l385 690h-399v336h637q104 0 168.5 -62.5t64.5 -160.5q0 -56 -45 -137l-368 -664h380v-342h-634q-100 0 -163 60t-63 155z" />
<glyph unicode="[" horiz-adv-x="686" d="M137 -455v2087h590v-182h-254v-1722h254v-183h-590z" />
<glyph unicode="\" horiz-adv-x="1147" d="M14 1393h299l820 -1420h-299z" />
<glyph unicode="]" horiz-adv-x="686" d="M-41 -272h254v1722h-254v182h590v-2087h-590v183z" />
<glyph unicode="^" horiz-adv-x="956" d="M362 586l97 96l-97 96l19 21l96 -97l96 97l21 -21l-96 -96l96 -96l-21 -19l-96 97l-96 -97z" />
<glyph unicode="_" horiz-adv-x="979" d="M0 -164h979v-205h-979v205z" />
<glyph unicode="`" horiz-adv-x="596" d="M68 1309h370l88 -285h-213z" />
<glyph unicode="a" d="M20 430q0 224 124.5 360t330.5 136q197 0 318.5 -113.5t121.5 -296.5v-516h-348v55q-85 -75 -200 -75q-154 0 -250.5 124.5t-96.5 325.5zM381 440q0 -188 92 -188q94 0 94 199q0 194 -90 194q-96 0 -96 -205z" />
<glyph unicode="b" horiz-adv-x="940" d="M35 399v967h354v-506q91 66 184 66q157 0 252 -128.5t95 -340.5q0 -226 -120.5 -355t-332.5 -129q-186 0 -307 107q-125 110 -125 319zM381 446q0 -194 92 -194q98 0 98 197q0 196 -96 196q-94 0 -94 -199z" />
<glyph unicode="c" horiz-adv-x="635" d="M20 457q0 207 112.5 323.5t313.5 116.5h160v-307h-82q-131 0 -131 -141q0 -136 131 -136h82v-313h-160q-202 0 -314 119.5t-112 337.5z" />
<glyph unicode="d" horiz-adv-x="940" d="M20 455q0 209 101 340t262 131q78 0 168 -45v485h356v-956q0 -199 -94 -304q-120 -133 -332 -133t-336.5 130t-124.5 352zM367 451q0 -199 96 -199q94 0 94 192q0 201 -96 201q-94 0 -94 -194z" />
<glyph unicode="e" horiz-adv-x="909" d="M20 436q0 217 125.5 353.5t325.5 136.5q174 0 300 -106.5t126 -252.5q0 -182 -225 -182h-291q0 -44 2 -59q13 -97 86 -97q70 0 86 97h344q-32 -163 -146 -258t-280 -95q-201 0 -327 128.5t-126 334.5zM387 557h170q-3 117 -86 117q-67 0 -84 -117z" />
<glyph unicode="f" horiz-adv-x="559" d="M35 0v1018q0 165 96 258q93 90 275 90h120v-295q-71 -1 -101 -17q-42 -22 -42 -83v-74h143v-293h-143v-604h-348z" />
<glyph unicode="g" d="M20 416q0 236 124 373t337 137q199 0 316.5 -114t117.5 -306v-563q0 -198 -117.5 -319.5t-308.5 -121.5q-184 0 -297 107t-126 293h340q2 -123 83 -123q78 0 78 117v145q-97 -66 -186 -66q-161 0 -261 122t-100 319zM377 451q0 -199 96 -199q94 0 94 194q0 199 -94 199 q-96 0 -96 -194z" />
<glyph unicode="h" horiz-adv-x="905" d="M35 0v1366h350v-487q109 47 186 47q140 0 219.5 -92.5t79.5 -253.5v-580h-350v532q0 89 -67 89q-68 0 -68 -89v-532h-350z" />
<glyph unicode="i" horiz-adv-x="424" d="M16 1182q0 87 57 149t138 62t138 -61.5t57 -147.5q0 -85 -56.5 -147t-134.5 -62q-83 0 -141 60.5t-58 146.5zM37 0v897h348v-897h-348z" />
<glyph unicode="j" horiz-adv-x="424" d="M-109 -168h48q64 0 86 51q12 30 12 113v901h348v-1030q0 -157 -87.5 -247.5t-268.5 -90.5h-138v303zM16 1182q0 87 57 149t138 62t138 -61.5t57 -147.5q0 -85 -56.5 -147t-134.5 -62q-83 0 -141 60.5t-58 146.5z" />
<glyph unicode="k" horiz-adv-x="940" d="M35 0v1366h348v-870l152 401h383l-201 -432l237 -465h-395l-176 434v-434h-348z" />
<glyph unicode="l" horiz-adv-x="424" d="M35 0v1366h354v-1366h-354z" />
<glyph unicode="m" horiz-adv-x="1366" d="M35 0v594q0 148 98.5 240t257.5 92q118 0 207 -54q34 -20 84 -65q50 45 84 65q89 54 207 54q159 0 258.5 -92.5t99.5 -239.5v-594h-342v532q0 89 -65 89q-66 0 -66 -89v-532h-348v532q0 89 -66 89q-65 0 -65 -89v-532h-344z" />
<glyph unicode="n" horiz-adv-x="915" d="M35 0v596q0 154 112.5 242t309.5 88q198 0 311 -88t113 -242v-596h-355v532q0 89 -69 89q-68 0 -68 -89v-532h-354z" />
<glyph unicode="o" d="M20 455q0 213 124.5 342t328.5 129q207 0 332 -131.5t125 -350.5q0 -214 -122 -342.5t-325 -128.5q-213 0 -338 130t-125 352zM385 449q0 -197 92 -197q90 0 90 199q0 194 -92 194q-90 0 -90 -196z" />
<glyph unicode="p" horiz-adv-x="967" d="M35 459q0 214 102 327q126 140 352 140q214 0 335.5 -128.5t121.5 -353.5q0 -209 -102 -340t-266 -131q-86 0 -189 60v-504h-354v930zM389 451q0 -199 96 -199q95 0 95 192q0 201 -95 201q-96 0 -96 -194z" />
<glyph unicode="q" horiz-adv-x="948" d="M20 430q0 226 124 361t331 135q227 0 350 -148q59 -70 78 -160q12 -61 12 -182v-907h-356v500q-75 -56 -170 -56q-166 0 -267.5 125.5t-101.5 331.5zM369 449q0 -197 96 -197q94 0 94 194q0 199 -94 199q-96 0 -96 -196z" />
<glyph unicode="r" horiz-adv-x="571" d="M35 0v571q0 153 94.5 239.5t261.5 86.5h154v-307h-37q-119 0 -119 -115v-475h-354z" />
<glyph unicode="s" horiz-adv-x="705" d="M20 623q0 141 100.5 222t276.5 81q121 0 250 -41v-254q-98 49 -182 49q-88 0 -88 -53q0 -42 76 -64q112 -32 155 -71q76 -71 76 -195q0 -149 -106 -236.5t-285 -87.5q-123 0 -256 47v263q120 -58 196 -58q91 0 91 62q0 41 -48 57l-86 29q-170 56 -170 250z" />
<glyph unicode="t" horiz-adv-x="580" d="M35 362v902h354v-367h158v-293h-158v-196q0 -115 143 -115h15v-293h-164q-348 0 -348 362z" />
<glyph unicode="u" horiz-adv-x="915" d="M35 301v596h354v-522q0 -88 68 -88q69 0 69 88v522h355v-596q0 -152 -113 -240t-311 -88q-197 0 -309.5 88t-112.5 240z" />
<glyph unicode="v" horiz-adv-x="805" d="M-47 897h358l97 -430l88 430h358l-215 -754q-49 -170 -233 -170q-182 0 -232 170z" />
<glyph unicode="w" horiz-adv-x="1161" d="M-45 897h342l70 -469l51 360q19 138 164 138q68 0 114 -35q39 -29 49 -103l54 -360l65 469h340l-190 -774q-37 -150 -193 -150q-174 0 -194 150l-45 328l-47 -328q-22 -150 -195 -150q-158 0 -195 150z" />
<glyph unicode="x" horiz-adv-x="999" d="M-14 0l313 467l-295 430h416l72 -135l73 135h420l-299 -430l328 -467h-428l-94 164l-93 -164h-413z" />
<glyph unicode="y" horiz-adv-x="918" d="M14 -100h344q4 -103 88 -103q82 0 82 127v119q-80 -63 -178 -63q-138 0 -225.5 96t-87.5 248v573h356v-522q0 -88 68 -88q67 0 67 88v522h357v-975q0 -420 -436 -420q-207 0 -320 105q-109 100 -115 293z" />
<glyph unicode="z" horiz-adv-x="850" d="M10 164q0 51 49 110l267 324h-281v299h604q93 0 147 -43.5t54 -118.5q0 -51 -49 -110l-266 -324h290v-301h-614q-201 0 -201 164z" />
<glyph unicode="{" horiz-adv-x="731" d="M68 563v94q198 66 198 338q0 73 -12 156q-25 165 -25 197q0 286 332 286h170v-102q-168 -12 -168 -201q0 -33 23 -201q12 -91 12 -172q0 -241 -246 -350q134 -41 190 -129t56 -256q0 -89 -12 -184q-23 -174 -23 -205q0 -182 168 -194v-99h-57q-51 0 -100.5 -1l-49.5 -1 q-293 0 -293 273q0 47 23 208q16 118 16 199q0 275 -202 344z" />
<glyph unicode="|" horiz-adv-x="723" d="M272 -55v1474h179v-1474h-179z" />
<glyph unicode="}" horiz-adv-x="731" d="M0 -360q168 12 168 194q0 31 -23 205q-12 95 -12 184q0 168 56 256t190 129q-246 109 -246 350q0 80 12 172l6 46q17 125 17 155q0 189 -168 201v102h170q332 0 332 -286q0 -32 -25 -197q-12 -83 -12 -154q0 -274 199 -340v-94q-203 -69 -203 -344q0 -80 16 -199 q23 -163 23 -208q0 -273 -293 -273l-49.5 1t-100.5 1h-57v99z" />
<glyph unicode="~" horiz-adv-x="956" d="M362 586l97 96l-97 96l19 21l96 -97l96 97l21 -21l-96 -96l96 -96l-21 -19l-96 97l-96 -97z" />
<glyph unicode="&#xa1;" horiz-adv-x="641" d="M96 686q0 98 65.5 169t155.5 71q96 0 163 -69.5t67 -168.5q0 -100 -66 -171t-159 -71q-94 0 -160 70t-66 170zM121 406h399v-873h-399v873z" />
<glyph unicode="&#xa2;" horiz-adv-x="598" d="M41 1022q0 255 199 324v225h237v-205h94v-242h-92q-119 0 -119 -96q0 -100 119 -100h92v-240h-94v-221h-237v242q-199 66 -199 313z" />
<glyph unicode="&#xa3;" horiz-adv-x="1180" d="M35 -6v289q67 9 110 32q95 52 95 199v27h-205v311h104q-12 66 -12 115q0 180 137.5 303t341.5 123q191 0 318 -117q59 -55 84 -119.5t32 -179.5h-387v20q-9 101 -82 101t-73 -82q0 -41 10 -74l10 -33l10 -43l4 -14h271v-311h-228q-16 -128 -79 -222q45 -2 86 -8 q57 -8 84 -8q130 0 133 148h368l-2 -23q-20 -218 -82 -303q-111 -152 -317 -152q-78 0 -186 15q-57 8 -129 18q-76 10 -156 10q-136 0 -238 -18z" />
<glyph unicode="&#xa4;" horiz-adv-x="1536" d="M221 303l121 121q-88 136 -88 287q0 165 88 288l-121 111l144 143l112 -118q104 88 287 88q181 0 289 -88l118 118l136 -135l-119 -119q96 -117 96 -288q0 -177 -96 -287l119 -121l-136 -135l-118 127q-107 -94 -289 -94q-175 0 -287 86l-121 -119zM516 711 q0 -114 79 -188q73 -68 169 -68q102 0 176 68q80 73 80 188q0 114 -80 188q-74 68 -176 68q-96 0 -169 -68q-79 -75 -79 -188z" />
<glyph unicode="&#xa5;" horiz-adv-x="1081" d="M27 334v239h307l-47 123h-260v238h168l-168 432h409l105 -422l104 422h410l-168 -432h168v-238h-262l-48 -123h310v-239h-324v-334h-383v334h-321z" />
<glyph unicode="&#xa7;" horiz-adv-x="956" d="M362 586l97 96l-97 96l19 21l96 -97l96 97l21 -21l-96 -96l96 -96l-21 -19l-96 97l-96 -97z" />
<glyph unicode="&#xa8;" horiz-adv-x="864" d="M68 1163q0 65 44 110.5t107 45.5q65 0 109.5 -44.5t44.5 -109.5q0 -63 -44.5 -107t-107.5 -44t-108 44t-45 105zM492 1163q0 65 43.5 110.5t107.5 45.5q65 0 109.5 -44.5t44.5 -109.5q0 -63 -45 -107t-109 -44q-63 0 -107 44t-44 105z" />
<glyph unicode="&#xa9;" horiz-adv-x="1694" d="M137 678q0 298 207 506.5t502 208.5t502.5 -208t207.5 -503q0 -290 -206.5 -499.5t-493.5 -209.5q-299 0 -509 205.5t-210 499.5zM205 682q0 -263 186.5 -452t446.5 -189q270 0 460.5 185.5t190.5 451.5q0 269 -188 458t-455 189q-266 0 -453.5 -188t-187.5 -455z M510 678q0 198 88.5 311t243.5 113q225 0 284 -217l-143 -33q-42 119 -141 119q-82 0 -128 -74t-46 -205q0 -307 174 -307q109 0 157 125l146 -39q-24 -56 -47 -90q-84 -125 -260 -125q-152 0 -240 113.5t-88 308.5z" />
<glyph unicode="&#xaa;" horiz-adv-x="598" d="M27 1096q0 135 75 216t199 81q118 0 191 -68t73 -178v-309h-209v32q-54 -45 -120 -45q-93 0 -151 75.5t-58 195.5zM244 1102q0 -113 55 -113q57 0 57 119q0 117 -55 117q-57 0 -57 -123z" />
<glyph unicode="&#xab;" horiz-adv-x="1229" d="M137 449l221 380h283l-199 -380l199 -381h-283zM629 449l221 380h283l-199 -380l199 -381h-283z" />
<glyph unicode="&#xac;" horiz-adv-x="1024" d="M16 475v268h992v-614h-277v346h-715z" />
<glyph unicode="&#xad;" horiz-adv-x="682" d="M68 375v315h546v-315h-546z" />
<glyph unicode="&#xae;" horiz-adv-x="1346" d="M96 811q0 243 168 412.5t408 169.5q239 0 408 -169t169 -409q0 -235 -167.5 -405t-399.5 -170q-244 0 -415 166.5t-171 404.5zM168 815q0 -206 147.5 -355t350.5 -149q213 0 361.5 146t148.5 354q0 212 -147 360t-357 148q-208 0 -356 -147.5t-148 -356.5zM469 512v602 h170q132 0 186 -31q76 -43 76 -149q0 -112 -108 -156l129 -266h-125l-113 246h-100v-246h-115zM584 850h78q70 0 97 19t27 67q0 54 -34 70q-19 12 -84 12h-84v-168z" />
<glyph unicode="&#xaf;" horiz-adv-x="760" d="M68 1079v176h624v-176h-624z" />
<glyph unicode="&#xb0;" horiz-adv-x="696" d="M63 1104q0 121 82.5 205t200.5 84q120 0 202.5 -82.5t82.5 -200.5q0 -120 -82 -202.5t-201 -82.5q-117 0 -201 82t-84 197zM203 1112q0 -63 41.5 -105t101.5 -42q62 0 105 42t43 103q0 60 -43 101.5t-103 41.5t-102.5 -41.5t-42.5 -99.5z" />
<glyph unicode="&#xb1;" horiz-adv-x="956" d="M68 0v246h819v-246h-819zM68 696v246h286v287h246v-287h287v-246h-287v-286h-246v286h-286z" />
<glyph unicode="&#xb4;" horiz-adv-x="596" d="M68 1024l90 285h368l-243 -285h-215z" />
<glyph unicode="&#xb6;" horiz-adv-x="1024" d="M-100 881q0 134 58 246t157 167q127 72 354 72h655v-215h-118v-1729h-205v1729h-203v-1729h-205v998q-171 0 -272.5 52t-161 163t-59.5 246zM121 881q0 -123 63.5 -193t173.5 -70h35v533h-4q-109 0 -168 -39q-100 -66 -100 -231z" />
<glyph unicode="&#xb7;" horiz-adv-x="778" d="M164 680q0 101 65.5 171.5t159.5 70.5t159.5 -70t65.5 -170q0 -97 -65 -167.5t-156 -70.5q-95 0 -162 69t-67 167z" />
<glyph unicode="&#xb8;" horiz-adv-x="598" d="M68 -430l28 127q70 -21 121 -21q111 0 111 70q0 68 -97 68q-24 0 -57 -4l111 225h137l-68 -144q176 -17 176 -147q0 -88 -81.5 -142.5t-212.5 -54.5q-68 0 -168 23z" />
<glyph unicode="&#xba;" horiz-adv-x="600" d="M27 1112q0 126 74.5 203.5t197.5 77.5q125 0 199.5 -78.5t74.5 -210.5q0 -129 -73 -206t-195 -77q-127 0 -202.5 79t-75.5 212zM246 1108q0 -119 55 -119t55 119q0 117 -55 117t-55 -117z" />
<glyph unicode="&#xbb;" horiz-adv-x="1229" d="M96 68l199 381l-199 380h283l221 -380l-221 -381h-283zM588 68l198 381l-198 380h282l222 -380l-222 -381h-282z" />
<glyph unicode="&#xbf;" horiz-adv-x="997" d="M41 -92q0 313 317 409v89h400v-205q0 -174 -172 -187q-46 -3 -58 -6q-27 -3 -47 -18q-30 -24 -30 -70q0 -40 27.5 -68t68.5 -28q90 0 96 110h381q-7 -101 -43 -184q-105 -244 -444 -244q-225 0 -360.5 110.5t-135.5 291.5zM334 686q-1 98 64.5 169t156.5 71 q95 0 162 -69.5t67 -168.5q0 -100 -65.5 -171t-159.5 -71q-93 0 -158.5 70t-66.5 170z" />
<glyph unicode="&#xc0;" horiz-adv-x="1026" d="M-14 0l272 1180q49 213 262 213q214 0 260 -213l258 -1180h-389l-31 193h-206l-35 -193h-391zM195 1760h370l88 -285h-213zM463 487h106l-51 312z" />
<glyph unicode="&#xc1;" horiz-adv-x="1026" d="M-14 0l272 1180q49 213 262 213q214 0 260 -213l258 -1180h-389l-31 193h-206l-35 -193h-391zM406 1475l90 285h368l-243 -285h-215zM463 487h106l-51 312z" />
<glyph unicode="&#xc2;" horiz-adv-x="1026" d="M-14 0l272 1180q49 213 262 213q214 0 260 -213l258 -1180h-389l-31 193h-206l-35 -193h-391zM154 1475l174 285h391l172 -285h-238l-131 131l-129 -131h-239zM463 487h106l-51 312z" />
<glyph unicode="&#xc3;" horiz-adv-x="1026" d="M-14 0l272 1180q49 213 262 213q214 0 260 -213l258 -1180h-389l-31 193h-206l-35 -193h-391zM162 1508q0 113 53.5 180.5t144.5 67.5q81 0 193 -54q60 -28 104 -28q51 0 60 80h165q-2 -67 -10 -109q-31 -164 -184 -164q-79 0 -193 47q-74 31 -116 31q-52 0 -56 -76h-159 q-2 10 -2 25zM463 487h106l-51 312z" />
<glyph unicode="&#xc4;" horiz-adv-x="1026" d="M-14 0l272 1180q49 213 262 213q214 0 260 -213l258 -1180h-389l-31 193h-206l-35 -193h-391zM154 1614q0 65 44 110.5t107 45.5q65 0 109.5 -44.5t44.5 -109.5q0 -63 -44.5 -107t-107.5 -44t-108 44t-45 105zM463 487h106l-51 312zM578 1614q0 65 43.5 110.5t107.5 45.5 q65 0 109.5 -44.5t44.5 -109.5q0 -63 -45 -107t-109 -44q-63 0 -107 44t-44 105z" />
<glyph unicode="&#xc5;" horiz-adv-x="1026" d="M-14 0l272 1180q49 213 262 213q214 0 260 -213l258 -1180h-389l-31 193h-206l-35 -193h-391zM293 1641q0 95 64 161t157 66q94 0 159.5 -65t65.5 -158q0 -94 -65 -159.5t-158 -65.5q-92 0 -157.5 65t-65.5 156zM409 1645q0 -45 31 -77t76 -32t76.5 31.5t31.5 77.5 q0 43 -32 74.5t-76 31.5q-43 0 -75 -31.5t-32 -74.5zM463 487h106l-51 312z" />
<glyph unicode="&#xc6;" horiz-adv-x="1534" d="M-14 0l639 1245q62 121 229 121h639v-322h-315v-188h286v-313h-286v-221h315v-322h-487q-206 0 -215 178q0 4 -3 15h-301l-94 -193h-407zM633 487h155v316z" />
<glyph unicode="&#xc7;" horiz-adv-x="846" d="M27 686q0 261 98 422q51 84 129 145q143 113 385 113h180v-336h-100q-291 0 -291 -344q0 -117 39 -205q62 -139 252 -139h100v-342h-180q-31 0 -53 2l-51 -111q176 -17 176 -147q0 -88 -81.5 -142.5t-213.5 -54.5q-68 0 -168 23l28 127q71 -21 121 -21q111 0 111 70 q0 68 -96 68q-25 0 -58 -4l101 206q-428 89 -428 670z" />
<glyph unicode="&#xc8;" horiz-adv-x="784" d="M41 244v878q0 119 39 172q52 72 180 72h483v-322h-313v-188h287v-313h-287v-221h313v-322h-483q-164 0 -205 117q-14 40 -14 127zM134 1760h370l88 -285h-213z" />
<glyph unicode="&#xc9;" horiz-adv-x="784" d="M41 244v878q0 119 39 172q52 72 180 72h483v-322h-313v-188h287v-313h-287v-221h313v-322h-483q-164 0 -205 117q-14 40 -14 127zM314 1475l90 285h368l-243 -285h-215z" />
<glyph unicode="&#xca;" horiz-adv-x="784" d="M41 244v878q0 119 39 172q52 72 180 72h483v-322h-313v-188h287v-313h-287v-221h313v-322h-483q-164 0 -205 117q-14 40 -14 127zM45 1475l174 285h391l172 -285h-238l-131 131l-129 -131h-239z" />
<glyph unicode="&#xcb;" horiz-adv-x="784" d="M41 244v878q0 119 39 172q52 72 180 72h483v-322h-313v-188h287v-313h-287v-221h313v-322h-483q-164 0 -205 117q-14 40 -14 127zM45 1614q0 65 44 110.5t107 45.5q65 0 109.5 -44.5t44.5 -109.5q0 -63 -44.5 -107t-107.5 -44t-108 44t-45 105zM469 1614q0 65 43.5 110.5 t107.5 45.5q65 0 109.5 -44.5t44.5 -109.5q0 -63 -45 -107t-109 -44q-63 0 -107 44t-44 105z" />
<glyph unicode="&#xcc;" horiz-adv-x="471" d="M-77 1760h370l88 -285h-213zM41 0v1366h389v-1366h-389z" />
<glyph unicode="&#xcd;" horiz-adv-x="471" d="M41 0v1366h389v-1366h-389zM109 1475l90 285h368l-243 -285h-215z" />
<glyph unicode="&#xce;" horiz-adv-x="471" d="M-135 1475l174 285h391l172 -285h-238l-131 131l-129 -131h-239zM41 0v1366h389v-1366h-389z" />
<glyph unicode="&#xcf;" horiz-adv-x="471" d="M-129 1614q0 65 44 110.5t107 45.5q65 0 109.5 -44.5t44.5 -109.5q0 -63 -44.5 -107t-107.5 -44t-108 44t-45 105zM41 0v1366h389v-1366h-389zM295 1614q0 65 43.5 110.5t107.5 45.5q65 0 109.5 -44.5t44.5 -109.5q0 -63 -45 -107t-109 -44q-63 0 -107 44t-44 105z" />
<glyph unicode="&#xd1;" horiz-adv-x="1090" d="M41 0v1171q0 105 63.5 163.5t178.5 58.5q83 0 143 -39q70 -45 111 -162l143 -412v586h369v-1171q0 -105 -63.5 -163.5t-178.5 -58.5q-190 0 -254 201l-143 449v-623h-369zM187 1508q0 113 53.5 180.5t144.5 67.5q81 0 193 -54q60 -28 104 -28q51 0 60 80h165 q-2 -67 -10 -109q-31 -164 -184 -164q-79 0 -193 47q-74 31 -116 31q-52 0 -56 -76h-159q-2 10 -2 25z" />
<glyph unicode="&#xd2;" horiz-adv-x="1130" d="M27 686q0 323 148 515t398 192q246 0 388.5 -191.5t142.5 -521.5q0 -322 -144.5 -514.5t-386.5 -192.5q-250 0 -398 193t-148 520zM254 1760h370l88 -285h-213zM436 666q0 -342 131 -342q79 0 111 106q24 82 24 244q0 200 -30 288.5t-99 88.5q-137 0 -137 -385z" />
<glyph unicode="&#xd3;" horiz-adv-x="1130" d="M27 686q0 323 148 515t398 192q246 0 388.5 -191.5t142.5 -521.5q0 -322 -144.5 -514.5t-386.5 -192.5q-250 0 -398 193t-148 520zM435 1475l90 285h368l-243 -285h-215zM436 666q0 -342 131 -342q79 0 111 106q24 82 24 244q0 200 -30 288.5t-99 88.5q-137 0 -137 -385z " />
<glyph unicode="&#xd4;" horiz-adv-x="1130" d="M27 686q0 323 148 515t398 192q246 0 388.5 -191.5t142.5 -521.5q0 -322 -144.5 -514.5t-386.5 -192.5q-250 0 -398 193t-148 520zM205 1475l174 285h391l172 -285h-238l-131 131l-129 -131h-239zM436 666q0 -342 131 -342q79 0 111 106q24 82 24 244q0 200 -30 288.5 t-99 88.5q-137 0 -137 -385z" />
<glyph unicode="&#xd5;" horiz-adv-x="1130" d="M27 686q0 323 148 515t398 192q246 0 388.5 -191.5t142.5 -521.5q0 -322 -144.5 -514.5t-386.5 -192.5q-250 0 -398 193t-148 520zM211 1508q0 113 53.5 180.5t144.5 67.5q81 0 193 -54q60 -28 104 -28q51 0 60 80h165q-2 -67 -10 -109q-31 -164 -184 -164q-79 0 -193 47 q-74 31 -116 31q-52 0 -56 -76h-159q-2 10 -2 25zM436 666q0 -342 131 -342q79 0 111 106q24 82 24 244q0 200 -30 288.5t-99 88.5q-137 0 -137 -385z" />
<glyph unicode="&#xd6;" horiz-adv-x="1130" d="M27 686q0 323 148 515t398 192q246 0 388.5 -191.5t142.5 -521.5q0 -322 -144.5 -514.5t-386.5 -192.5q-250 0 -398 193t-148 520zM207 1614q0 65 44 110.5t107 45.5q65 0 109.5 -44.5t44.5 -109.5q0 -63 -44.5 -107t-107.5 -44t-108 44t-45 105zM436 666 q0 -342 131 -342q79 0 111 106q24 82 24 244q0 200 -30 288.5t-99 88.5q-137 0 -137 -385zM631 1614q0 65 43.5 110.5t107.5 45.5q65 0 109.5 -44.5t44.5 -109.5q0 -63 -45 -107t-109 -44q-63 0 -107 44t-44 105z" />
<glyph unicode="&#xd8;" horiz-adv-x="1133" d="M27 -27l127 220q-127 209 -127 489q0 326 148 518.5t398 192.5q126 0 240 -60l33 60h301l-146 -252q103 -202 103 -459q0 -327 -144.5 -518t-392.5 -191q-103 0 -213 45l-26 -45h-301zM436 666q0 -342 131 -342q79 0 111 106q24 82 24 244q0 200 -30 288.5t-99 88.5 q-137 0 -137 -385z" />
<glyph unicode="&#xd9;" horiz-adv-x="1065" d="M41 420v946h389v-879q0 -84 19 -112q26 -41 83 -41q58 0 84 41q19 28 19 112v879h389v-946q0 -198 -136.5 -322.5t-355.5 -124.5q-218 0 -354.5 124.5t-136.5 322.5zM197 1760h370l88 -285h-213z" />
<glyph unicode="&#xda;" horiz-adv-x="1065" d="M41 420v946h389v-879q0 -84 19 -112q26 -41 83 -41q58 0 84 41q19 28 19 112v879h389v-946q0 -198 -136.5 -322.5t-355.5 -124.5q-218 0 -354.5 124.5t-136.5 322.5zM404 1475l90 285h368l-243 -285h-215z" />
<glyph unicode="&#xdb;" horiz-adv-x="1065" d="M41 420v946h389v-879q0 -84 19 -112q26 -41 83 -41q58 0 84 41q19 28 19 112v879h389v-946q0 -198 -136.5 -322.5t-355.5 -124.5q-218 0 -354.5 124.5t-136.5 322.5zM168 1475l174 285h391l172 -285h-238l-131 131l-129 -131h-239z" />
<glyph unicode="&#xdc;" horiz-adv-x="1065" d="M41 420v946h389v-879q0 -84 19 -112q26 -41 83 -41q58 0 84 41q19 28 19 112v879h389v-946q0 -198 -136.5 -322.5t-355.5 -124.5q-218 0 -354.5 124.5t-136.5 322.5zM164 1614q0 65 44 110.5t107 45.5q65 0 109.5 -44.5t44.5 -109.5q0 -63 -44.5 -107t-107.5 -44t-108 44 t-45 105zM588 1614q0 65 43.5 110.5t107.5 45.5q65 0 109.5 -44.5t44.5 -109.5q0 -63 -45 -107t-109 -44q-63 0 -107 44t-44 105z" />
<glyph unicode="&#xdd;" horiz-adv-x="999" d="M-14 1366h409l105 -422l104 422h410l-324 -829v-537h-383v537zM398 1475l90 285h368l-243 -285h-215z" />
<glyph unicode="&#xdf;" horiz-adv-x="1016" d="M35 0v1018q0 165 96 260q62 61 164 78q55 10 186 10q231 0 328 -72q113 -83 113 -237q0 -39 -13 -82q-18 -64 -97 -158.5t-79 -130.5q0 -32 37 -61l78 -62q153 -121 153 -276q0 -140 -92.5 -226t-242.5 -86q-102 0 -222 48v276l23 -10q90 -41 129 -41q86 0 86 61 q0 26 -20 51q-15 18 -80 72q-84 69 -113 131q-25 53 -25 121q0 55 17 100q21 58 96 146q51 59 51 98q0 57 -90 57q-135 0 -135 -100v-985h-348z" />
<glyph unicode="&#xe0;" d="M20 430q0 224 124.5 360t330.5 136q197 0 318.5 -113.5t121.5 -296.5v-516h-348v55q-85 -75 -200 -75q-154 0 -250.5 124.5t-96.5 325.5zM134 1309h370l88 -285h-213zM381 440q0 -188 92 -188q94 0 94 199q0 194 -90 194q-96 0 -96 -205z" />
<glyph unicode="&#xe1;" d="M20 430q0 224 124.5 360t330.5 136q197 0 318.5 -113.5t121.5 -296.5v-516h-348v55q-85 -75 -200 -75q-154 0 -250.5 124.5t-96.5 325.5zM351 1024l90 285h368l-243 -285h-215zM381 440q0 -188 92 -188q94 0 94 199q0 194 -90 194q-96 0 -96 -205z" />
<glyph unicode="&#xe2;" d="M20 430q0 224 124.5 360t330.5 136q197 0 318.5 -113.5t121.5 -296.5v-516h-348v55q-85 -75 -200 -75q-154 0 -250.5 124.5t-96.5 325.5zM107 1024l174 285h391l172 -285h-238l-131 131l-129 -131h-239zM381 440q0 -188 92 -188q94 0 94 199q0 194 -90 194 q-96 0 -96 -205z" />
<glyph unicode="&#xe3;" d="M20 430q0 224 124.5 360t330.5 136q197 0 318.5 -113.5t121.5 -296.5v-516h-348v55q-85 -75 -200 -75q-154 0 -250.5 124.5t-96.5 325.5zM115 1057q0 113 53.5 180.5t144.5 67.5q81 0 193 -54q60 -28 104 -28q51 0 60 80h165q-2 -67 -10 -109q-31 -164 -184 -164 q-79 0 -193 47q-74 31 -116 31q-52 0 -56 -76h-159q-2 10 -2 25zM381 440q0 -188 92 -188q94 0 94 199q0 194 -90 194q-96 0 -96 -205z" />
<glyph unicode="&#xe4;" d="M20 430q0 224 124.5 360t330.5 136q197 0 318.5 -113.5t121.5 -296.5v-516h-348v55q-85 -75 -200 -75q-154 0 -250.5 124.5t-96.5 325.5zM107 1163q0 65 44 110.5t107 45.5q65 0 109.5 -44.5t44.5 -109.5q0 -63 -44.5 -107t-107.5 -44t-108 44t-45 105zM381 440 q0 -188 92 -188q94 0 94 199q0 194 -90 194q-96 0 -96 -205zM531 1163q0 65 43.5 110.5t107.5 45.5q65 0 109.5 -44.5t44.5 -109.5q0 -63 -45 -107t-109 -44q-63 0 -107 44t-44 105z" />
<glyph unicode="&#xe5;" d="M20 430q0 224 124.5 360t330.5 136q197 0 318.5 -113.5t121.5 -296.5v-516h-348v55q-85 -75 -200 -75q-154 0 -250.5 124.5t-96.5 325.5zM250 1190q0 95 64 161t157 66q94 0 159.5 -65t65.5 -158q0 -94 -65 -159.5t-158 -65.5q-92 0 -157.5 65t-65.5 156zM366 1194 q0 -45 31 -77t76 -32t76.5 31.5t31.5 77.5q0 43 -32 74.5t-76 31.5q-43 0 -75 -31.5t-32 -74.5zM381 440q0 -188 92 -188q94 0 94 199q0 194 -90 194q-96 0 -96 -205z" />
<glyph unicode="&#xe6;" horiz-adv-x="1446" d="M20 430q0 224 124.5 360t330.5 136q152 0 275 -78q118 78 260 78q173 0 298.5 -106.5t125.5 -252.5q0 -182 -226 -182h-288q0 -40 2 -59q10 -97 86 -97q68 0 84 97h344q-31 -165 -147 -259t-288 -94q-86 0 -161 27h-273v55q-85 -75 -200 -75q-154 0 -250.5 124.5 t-96.5 325.5zM381 444q0 -192 94 -192q92 0 92 197q0 196 -90 196q-96 0 -96 -201zM924 557h170q-3 117 -84 117q-70 0 -86 -117z" />
<glyph unicode="&#xe7;" horiz-adv-x="635" d="M20 457q0 207 112.5 323.5t313.5 116.5h160v-307h-82q-131 0 -131 -141q0 -136 131 -136h82v-313h-155l-52 -109q179 -18 179 -147q0 -87 -82.5 -142t-212.5 -55q-68 0 -168 23l26 127q73 -21 123 -21q111 0 111 70q0 68 -96 68q-25 0 -60 -4l100 204q-299 80 -299 443z " />
<glyph unicode="&#xe8;" horiz-adv-x="909" d="M20 436q0 217 125.5 353.5t325.5 136.5q174 0 300 -106.5t126 -252.5q0 -182 -225 -182h-291q0 -44 2 -59q13 -97 86 -97q70 0 86 97h344q-32 -163 -146 -258t-280 -95q-201 0 -327 128.5t-126 334.5zM152 1309h370l88 -285h-213zM387 557h170q-3 117 -86 117 q-67 0 -84 -117z" />
<glyph unicode="&#xe9;" horiz-adv-x="909" d="M20 436q0 217 125.5 353.5t325.5 136.5q174 0 300 -106.5t126 -252.5q0 -182 -225 -182h-291q0 -44 2 -59q13 -97 86 -97q70 0 86 97h344q-32 -163 -146 -258t-280 -95q-201 0 -327 128.5t-126 334.5zM324 1024l90 285h368l-243 -285h-215zM387 557h170q-3 117 -86 117 q-67 0 -84 -117z" />
<glyph unicode="&#xea;" horiz-adv-x="909" d="M20 436q0 217 125.5 353.5t325.5 136.5q174 0 300 -106.5t126 -252.5q0 -182 -225 -182h-291q0 -44 2 -59q13 -97 86 -97q70 0 86 97h344q-32 -163 -146 -258t-280 -95q-201 0 -327 128.5t-126 334.5zM103 1024l174 285h391l172 -285h-238l-131 131l-129 -131h-239z M387 557h170q-3 117 -86 117q-67 0 -84 -117z" />
<glyph unicode="&#xeb;" horiz-adv-x="909" d="M20 436q0 217 125.5 353.5t325.5 136.5q174 0 300 -106.5t126 -252.5q0 -182 -225 -182h-291q0 -44 2 -59q13 -97 86 -97q70 0 86 97h344q-32 -163 -146 -258t-280 -95q-201 0 -327 128.5t-126 334.5zM109 1163q0 65 44 110.5t107 45.5q65 0 109.5 -44.5t44.5 -109.5 q0 -63 -44.5 -107t-107.5 -44t-108 44t-45 105zM387 557h170q-3 117 -86 117q-67 0 -84 -117zM533 1163q0 65 43.5 110.5t107.5 45.5q65 0 109.5 -44.5t44.5 -109.5q0 -63 -45 -107t-109 -44q-63 0 -107 44t-44 105z" />
<glyph unicode="&#xec;" horiz-adv-x="416" d="M-122 1309h370l88 -285h-213zM35 0v897h348v-897h-348z" />
<glyph unicode="&#xed;" horiz-adv-x="416" d="M35 0v897h348v-897h-348zM78 1024l90 285h368l-243 -285h-215z" />
<glyph unicode="&#xee;" horiz-adv-x="416" d="M-163 1024l174 285h391l172 -285h-238l-131 131l-129 -131h-239zM35 0v897h348v-897h-348z" />
<glyph unicode="&#xef;" horiz-adv-x="416" d="M-151 1163q0 65 44 110.5t107 45.5q65 0 109.5 -44.5t44.5 -109.5q0 -63 -44.5 -107t-107.5 -44t-108 44t-45 105zM35 0v897h348v-897h-348zM273 1163q0 65 43.5 110.5t107.5 45.5q65 0 109.5 -44.5t44.5 -109.5q0 -63 -45 -107t-109 -44q-63 0 -107 44t-44 105z" />
<glyph unicode="&#xf1;" horiz-adv-x="915" d="M35 0v596q0 154 112.5 242t309.5 88q198 0 311 -88t113 -242v-596h-355v532q0 89 -69 89q-68 0 -68 -89v-532h-354zM97 1057q0 113 53.5 180.5t144.5 67.5q81 0 193 -54q60 -28 104 -28q51 0 60 80h165q-2 -67 -10 -109q-31 -164 -184 -164q-79 0 -193 47q-74 31 -116 31 q-52 0 -56 -76h-159q-2 10 -2 25z" />
<glyph unicode="&#xf2;" d="M20 455q0 213 124.5 342t328.5 129q207 0 332 -131.5t125 -350.5q0 -214 -122 -342.5t-325 -128.5q-213 0 -338 130t-125 352zM154 1309h370l88 -285h-213zM385 449q0 -197 92 -197q90 0 90 199q0 194 -92 194q-90 0 -90 -196z" />
<glyph unicode="&#xf3;" d="M20 455q0 213 124.5 342t328.5 129q207 0 332 -131.5t125 -350.5q0 -214 -122 -342.5t-325 -128.5q-213 0 -338 130t-125 352zM342 1024l90 285h368l-243 -285h-215zM385 449q0 -197 92 -197q90 0 90 199q0 194 -92 194q-90 0 -90 -196z" />
<glyph unicode="&#xf4;" d="M20 455q0 213 124.5 342t328.5 129q207 0 332 -131.5t125 -350.5q0 -214 -122 -342.5t-325 -128.5q-213 0 -338 130t-125 352zM109 1024l174 285h391l172 -285h-238l-131 131l-129 -131h-239zM385 449q0 -197 92 -197q90 0 90 199q0 194 -92 194q-90 0 -90 -196z" />
<glyph unicode="&#xf5;" d="M20 455q0 213 124.5 342t328.5 129q207 0 332 -131.5t125 -350.5q0 -214 -122 -342.5t-325 -128.5q-213 0 -338 130t-125 352zM113 1057q0 113 53.5 180.5t144.5 67.5q81 0 193 -54q60 -28 104 -28q51 0 60 80h165q-2 -67 -10 -109q-31 -164 -184 -164q-79 0 -193 47 q-74 31 -116 31q-52 0 -56 -76h-159q-2 10 -2 25zM385 449q0 -197 92 -197q90 0 90 199q0 194 -92 194q-90 0 -90 -196z" />
<glyph unicode="&#xf6;" d="M20 455q0 213 124.5 342t328.5 129q207 0 332 -131.5t125 -350.5q0 -214 -122 -342.5t-325 -128.5q-213 0 -338 130t-125 352zM109 1163q0 65 44 110.5t107 45.5q65 0 109.5 -44.5t44.5 -109.5q0 -63 -44.5 -107t-107.5 -44t-108 44t-45 105zM385 449q0 -197 92 -197 q90 0 90 199q0 194 -92 194q-90 0 -90 -196zM533 1163q0 65 43.5 110.5t107.5 45.5q65 0 109.5 -44.5t44.5 -109.5q0 -63 -45 -107t-109 -44q-63 0 -107 44t-44 105z" />
<glyph unicode="&#xf8;" d="M20 -27l107 152q-107 131 -107 330q0 212 124 341.5t329 129.5q92 0 189 -35l22 35h246l-105 -152q105 -129 105 -330q0 -216 -123 -343.5t-332 -127.5q-100 0 -186 33l-23 -33h-246zM385 449q0 -197 92 -197q90 0 90 199q0 194 -92 194q-90 0 -90 -196z" />
<glyph unicode="&#xf9;" horiz-adv-x="915" d="M35 301v596h354v-522q0 -88 68 -88q69 0 69 88v522h355v-596q0 -152 -113 -240t-311 -88q-197 0 -309.5 88t-112.5 240zM144 1309h370l88 -285h-213z" />
<glyph unicode="&#xfa;" horiz-adv-x="915" d="M35 301v596h354v-522q0 -88 68 -88q69 0 69 88v522h355v-596q0 -152 -113 -240t-311 -88q-197 0 -309.5 88t-112.5 240zM316 1024l90 285h368l-243 -285h-215z" />
<glyph unicode="&#xfb;" horiz-adv-x="915" d="M35 301v596h354v-522q0 -88 68 -88q69 0 69 88v522h355v-596q0 -152 -113 -240t-311 -88q-197 0 -309.5 88t-112.5 240zM88 1024l174 285h391l172 -285h-238l-131 131l-129 -131h-239z" />
<glyph unicode="&#xfc;" horiz-adv-x="915" d="M35 301v596h354v-522q0 -88 68 -88q69 0 69 88v522h355v-596q0 -152 -113 -240t-311 -88q-197 0 -309.5 88t-112.5 240zM93 1163q0 65 44 110.5t107 45.5q65 0 109.5 -44.5t44.5 -109.5q0 -63 -44.5 -107t-107.5 -44t-108 44t-45 105zM517 1163q0 65 43.5 110.5 t107.5 45.5q65 0 109.5 -44.5t44.5 -109.5q0 -63 -45 -107t-109 -44q-63 0 -107 44t-44 105z" />
<glyph unicode="&#xfd;" horiz-adv-x="918" d="M14 -100h344q4 -103 88 -103q82 0 82 127v119q-80 -63 -178 -63q-138 0 -225.5 96t-87.5 248v573h356v-522q0 -88 68 -88q67 0 67 88v522h357v-975q0 -420 -436 -420q-207 0 -320 105q-109 100 -115 293zM334 1024l90 285h368l-243 -285h-215z" />
<glyph unicode="&#xff;" horiz-adv-x="918" d="M14 -100h344q4 -103 88 -103q82 0 82 127v119q-80 -63 -178 -63q-138 0 -225.5 96t-87.5 248v573h356v-522q0 -88 68 -88q67 0 67 88v522h357v-975q0 -420 -436 -420q-207 0 -320 105q-109 100 -115 293zM101 1163q0 65 44 110.5t107 45.5q65 0 109.5 -44.5t44.5 -109.5 q0 -63 -44.5 -107t-107.5 -44t-108 44t-45 105zM525 1163q0 65 43.5 110.5t107.5 45.5q65 0 109.5 -44.5t44.5 -109.5q0 -63 -45 -107t-109 -44q-63 0 -107 44t-44 105z" />
<glyph unicode="&#x152;" horiz-adv-x="1448" d="M27 684q0 326 148.5 517.5t402.5 191.5q81 0 163 -27h666v-322h-313v-188h286v-313h-286v-221h313v-322h-682q-80 -27 -158 -27q-245 0 -392.5 194t-147.5 517zM436 666q0 -342 131 -342q79 0 111 106q24 82 24 244q0 200 -30 288.5t-99 88.5q-137 0 -137 -385z" />
<glyph unicode="&#x153;" horiz-adv-x="1456" d="M20 455q0 212 124 341.5t327 129.5q158 0 281 -84q118 84 268 84q173 0 298.5 -106.5t125.5 -252.5q0 -182 -225 -182h-291q1 -19 4 -59q10 -97 86 -97q68 0 84 97h344q-31 -163 -145.5 -258t-280.5 -95q-147 0 -268 78q-121 -78 -279 -78q-204 0 -328.5 132t-124.5 350z M385 449q0 -197 92 -197q90 0 90 199q0 194 -92 194q-90 0 -90 -196zM934 557h170q-3 117 -84 117q-69 0 -86 -117z" />
<glyph unicode="&#x178;" horiz-adv-x="999" d="M-14 1366h409l105 -422l104 422h410l-324 -829v-537h-383v537zM136 1614q0 65 44 110.5t107 45.5q65 0 109.5 -44.5t44.5 -109.5q0 -63 -44.5 -107t-107.5 -44t-108 44t-45 105zM560 1614q0 65 43.5 110.5t107.5 45.5q65 0 109.5 -44.5t44.5 -109.5q0 -63 -45 -107 t-109 -44q-63 0 -107 44t-44 105z" />
<glyph unicode="&#x2c6;" horiz-adv-x="874" d="M68 1024l174 285h391l172 -285h-238l-131 131l-129 -131h-239z" />
<glyph unicode="&#x2dc;" horiz-adv-x="858" d="M68 1057q0 113 53.5 180.5t144.5 67.5q81 0 193 -54q60 -28 104 -28q51 0 60 80h165q-2 -67 -10 -109q-31 -164 -184 -164q-79 0 -193 47q-74 31 -116 31q-52 0 -56 -76h-159q-2 10 -2 25z" />
<glyph unicode="&#x2000;" horiz-adv-x="934" />
<glyph unicode="&#x2001;" horiz-adv-x="1868" />
<glyph unicode="&#x2002;" horiz-adv-x="934" />
<glyph unicode="&#x2003;" horiz-adv-x="1868" />
<glyph unicode="&#x2004;" horiz-adv-x="622" />
<glyph unicode="&#x2005;" horiz-adv-x="467" />
<glyph unicode="&#x2006;" horiz-adv-x="311" />
<glyph unicode="&#x2007;" horiz-adv-x="311" />
<glyph unicode="&#x2008;" horiz-adv-x="233" />
<glyph unicode="&#x2009;" horiz-adv-x="373" />
<glyph unicode="&#x200a;" horiz-adv-x="103" />
<glyph unicode="&#x2010;" horiz-adv-x="682" d="M68 375v315h546v-315h-546z" />
<glyph unicode="&#x2011;" horiz-adv-x="682" d="M68 375v315h546v-315h-546z" />
<glyph unicode="&#x2012;" horiz-adv-x="682" d="M68 375v315h546v-315h-546z" />
<glyph unicode="&#x2013;" horiz-adv-x="1366" d="M137 375v315h1092v-315h-1092z" />
<glyph unicode="&#x2014;" horiz-adv-x="2458" d="M137 375v315h2183v-315h-2183z" />
<glyph unicode="&#x2018;" horiz-adv-x="559" d="M55 862q0 92 72 201l199 303h118l-96 -279q158 -59 158 -227q0 -99 -66.5 -169t-158.5 -70q-95 0 -160.5 70t-65.5 171z" />
<glyph unicode="&#x2019;" horiz-adv-x="559" d="M55 1153q0 100 66 170t160 70q93 0 159 -70.5t66 -171.5q0 -91 -72 -201l-198 -303h-121l96 279q-156 58 -156 227z" />
<glyph unicode="&#x201a;" horiz-adv-x="547" d="M47 213q0 98 66.5 168t158.5 70q95 0 160.5 -70.5t65.5 -171.5q0 -92 -72 -201l-199 -301h-118l96 279q-158 56 -158 227z" />
<glyph unicode="&#x201c;" horiz-adv-x="1092" d="M55 862q0 92 72 201l199 303h118l-96 -279q158 -59 158 -227q0 -99 -66.5 -169t-158.5 -70q-95 0 -160.5 70t-65.5 171zM588 862q0 92 71 201l199 303h119l-96 -279q157 -59 157 -227q0 -99 -66 -169t-159 -70q-95 0 -160 70t-65 171z" />
<glyph unicode="&#x201d;" horiz-adv-x="1092" d="M55 1153q0 100 66 170t160 70q93 0 159 -70.5t66 -171.5q0 -91 -72 -201l-198 -303h-121l96 279q-156 58 -156 227zM588 1153q0 100 65.5 170t159.5 70t159.5 -70.5t65.5 -171.5q0 -91 -71 -201l-199 -303h-121l96 279q-155 58 -155 227z" />
<glyph unicode="&#x201e;" horiz-adv-x="1079" d="M47 213q0 98 66.5 168t158.5 70q95 0 160.5 -70.5t65.5 -171.5q0 -92 -72 -201l-199 -301h-118l96 279q-158 56 -158 227zM580 213q0 98 66 168t159 70q95 0 160 -70.5t65 -171.5q0 -92 -72 -201l-198 -301h-119l96 279q-157 56 -157 227z" />
<glyph unicode="&#x2022;" horiz-adv-x="819" d="M137 680q0 115 79.5 195.5t193.5 80.5q113 0 192.5 -80t79.5 -194q0 -111 -79 -191.5t-189 -80.5q-115 0 -196 79t-81 191z" />
<glyph unicode="&#x2026;" horiz-adv-x="1817" d="M96 211q0 100 66 170t160 70q92 0 158.5 -70t66.5 -168t-66.5 -169t-156.5 -71q-95 0 -161.5 69.5t-66.5 168.5zM682 211q0 100 66 170t159 70q94 0 160 -70t66 -168t-65.5 -169t-156.5 -71q-95 0 -162 70t-67 168zM1270 211q0 100 65.5 170t159.5 70t159.5 -70 t65.5 -168t-65 -169t-156 -71q-95 0 -162 69t-67 169z" />
<glyph unicode="&#x202f;" horiz-adv-x="373" />
<glyph unicode="&#x2039;" horiz-adv-x="737" d="M137 449l221 380h283l-199 -380l199 -381h-283z" />
<glyph unicode="&#x203a;" horiz-adv-x="737" d="M96 68l199 381l-199 380h283l221 -380l-221 -381h-283z" />
<glyph unicode="&#x205f;" horiz-adv-x="467" />
<glyph unicode="&#x20ac;" horiz-adv-x="1004" d="M35 444l57 205h92v68h-149l57 205h115q25 104 76 186q53 86 127 145q141 113 385 113h182v-336h-103q-55 0 -104 -14q-71 -21 -127 -94h264l-57 -205h-264q-2 -15 -2 -31q0 -3 1 -15.5t1 -21.5h243l-57 -205h-129q21 -30 31 -41q61 -61 200 -61h103v-342h-182 q-248 0 -390 108t-196 336h-174z" />
<glyph unicode="&#x2122;" horiz-adv-x="1065" d="M55 1268v98h385v-98h-141v-504h-102v504h-142zM506 764v602h145l105 -420l106 420h150v-602h-92v489l-123 -489h-78l-123 489v-489h-90z" />
<glyph unicode="&#x25fc;" horiz-adv-x="895" d="M0 0v895h895v-895h-895z" />
</font>
</defs>
</svg>
